<svg xmlns="http://www.w3.org/2000/svg" xmlns:xlink="http://www.w3.org/1999/xlink" version="1.1" x="0px" y="0px" width="100px" height="100px" viewBox="0 0 100 100" enable-background="new 0 0 100 100" xml:space="preserve">
<g id="Captions">
</g>
<g id="Layer_7" display="none">
</g>
<g id="Your_Icon" display="none">
	<path display="inline" d="M16.019,85.98h67.963V14.02H69.992v20.988H30.013V14.02H16.019V85.98z M73.987,79.984H26.012V50h47.976   V79.984z"/>
	<rect x="43.756" y="14.02" display="inline" width="17.989" height="13.99"/>
</g>
<g id="Layer_6" display="none">
	<polygon display="inline" points="30.46,62.609 73.609,62.609 85.938,31.789 30.9,31.789 26.398,20.955 14.063,20.955    14.063,27.117 22.391,27.117 24.312,31.789 24.295,31.789  "/>
	<path display="inline" d="M35.237,66.719c-3.404,0-6.161,2.76-6.161,6.164c0,3.406,2.757,6.162,6.161,6.162   c3.406,0,6.167-2.756,6.167-6.162C41.404,69.479,38.643,66.719,35.237,66.719z"/>
	<circle display="inline" cx="67.869" cy="72.882" r="6.163"/>
</g>
<g id="Layer_5" display="none">
	<polygon display="inline" points="52.894,33.262 46.897,33.262 46.897,51.252 46.923,51.252 46.912,51.26 59.632,63.98    63.875,59.74 52.894,48.762  "/>
	<path display="inline" d="M50.001,14.018c-19.872,0-35.982,16.107-35.982,35.98s16.11,35.984,35.982,35.984   c19.873,0,35.98-16.111,35.98-35.984S69.874,14.018,50.001,14.018z M50.001,73.988c-13.227,0-23.988-10.762-23.988-23.99   c0-13.227,10.762-23.984,23.988-23.984c13.229,0,23.988,10.758,23.988,23.984C73.989,63.227,63.229,73.988,50.001,73.988z"/>
</g>
<g id="Layer_4">
	<path d="M80.83,50.574c-2.017-5.403-5.177-5.679-7.18-5.197v11.455l-1.997-1.997v-9.451c-0.259-1.224-0.938-3.587-2.448-4.451   c-2.465-1.407-4.955-0.503-6.465,0.36V53.96l-1.998-1.998V41.06c-2.797-5.673-7.221-4.643-9.912-3.125v13.36l-2-1.998V18.393   c-0.608-6.545-11.746-6.225-11.746,0.452c0,6.289,0.058,33.983,0.058,33.983c-0.032-0.057-0.065-0.108-0.097-0.166v3.463l-2-2   v-4.466c-3.084-3.994-6.017-5.115-7.654-5.918c-4.3-1.426-12.291-1.52-6.989,5.482C34.777,68.198,32.234,81.347,41.574,84.15   c8.868,2.662,26.373,3.179,31.918,0C81.025,80.974,82.268,54.425,80.83,50.574z"/>
</g>
</svg>