<?xml version="1.0" encoding="utf-8"?>
<!-- Generator: Adobe Illustrator 15.1.0, SVG Export Plug-In . SVG Version: 6.00 Build 0)  -->
<!DOCTYPE svg PUBLIC "-//W3C//DTD SVG 1.1//EN" "http://www.w3.org/Graphics/SVG/1.1/DTD/svg11.dtd">
<svg version="1.1" id="Layer_1" xmlns="http://www.w3.org/2000/svg" xmlns:xlink="http://www.w3.org/1999/xlink" x="0px" y="0px"
	 width="36.817px" height="100px" viewBox="30.921 -2.641 36.817 100" enable-background="new 30.921 -2.641 36.817 100"
	 xml:space="preserve">
<g>
	<path fill="#231F20" d="M49.468,97.359c7.3,0,18.271-3.226,18.271-22.248c0-4.209-0.103-10.657-0.746-16.907
		c-0.018-0.167-11.31-1.151-17.746-1.151h0.434c-6.435,0-17.727,0.985-17.744,1.151c-0.644,6.25-0.745,12.698-0.745,16.907
		c0,19.022,10.969,22.248,18.27,22.248"/>
	<path fill="#231F20" d="M47.792,53.923c-6.203-0.036-11.021,0.312-15.724,0.938c0.614-4.366,1.536-8.312,2.935-10.842
		c2.549-4.598,8.29-4.726,12.797-4.622L47.792,53.923z"/>
	<path fill="#231F20" d="M51.102,53.854c6.203-0.031,11.021,0.314,15.722,0.94c-0.612-4.368-1.533-8.312-2.934-10.843
		c-2.548-4.599-8.289-4.727-12.796-4.622L51.102,53.854z"/>
	<path fill="#231F20" d="M30.921,75.111c0,19.022,10.971,22.248,18.27,22.248"/>
	<g>
		<g>
			<path fill="#231F20" d="M51.094,39.354L47.8,39.397l0.001-1.145c-0.005-1.827-0.011-3.714,0.284-5.611
				c0.509-3.287,2.017-6.275,4.482-8.879c0.838-0.888,1.739-1.612,2.61-2.312c0.542-0.432,1.045-0.84,1.532-1.277
				c1.105-0.995,1.964-1.842,2.136-2.921c0.323-2.086-0.542-3.885-2.573-5.345c-0.685-0.488-1.486-0.894-2.338-1.321
				c-2.126-1.073-4.535-2.289-5.633-5.191c-0.987-2.592-0.378-5.746,1.545-8.036l2.469,2.073c-1.166,1.39-1.57,3.326-1.006,4.818
				c0.656,1.73,2.237,2.529,4.072,3.455c0.925,0.466,1.88,0.948,2.763,1.582c3.019,2.165,4.398,5.172,3.883,8.463
				c-0.358,2.297-1.979,3.755-3.16,4.82c-0.552,0.5-1.123,0.955-1.669,1.395c-0.822,0.662-1.602,1.287-2.287,2.013
				c-2.001,2.123-3.228,4.531-3.632,7.16c-0.261,1.646-0.185,3.337-0.178,5.115v1.1H51.094z"/>
		</g>
	</g>
</g>
</svg>
